<svg width="724" height="143" fill="none" xmlns="http://www.w3.org/2000/svg"><path fill-rule="evenodd" clip-rule="evenodd" d="M60.387 140.667c10.616 4.05 21.692 2.012 31.157-5.276 9.332-7.184 16.551-18.998 20.829-33.164l-8.281-2.5c-3.931 13.013-10.338 23.046-17.826 28.811-7.353 5.661-15.296 6.909-22.794 4.048-7.704-2.94-15.082-10.28-20.544-21.539-5.44-11.21-8.451-25.26-8.419-39.843.032-14.582 3.107-28.593 8.593-39.735 5.509-11.187 12.91-18.43 20.615-21.275 7.5-2.77 15.444-1.435 22.787 4.323 7.472 5.86 13.838 15.978 17.711 29.04l8.294-2.459c-4.214-14.212-11.377-26.1-20.666-33.386C82.424.325 71.363-1.85 60.72 2.08 50.28 5.935 41.468 15.205 35.34 27.649c-6.15 12.49-9.447 27.833-9.482 43.536-.035 15.703 3.195 31.082 9.287 43.637 6.069 12.51 14.831 21.872 25.242 25.845z" fill="#5468FF"/><path fill-rule="evenodd" clip-rule="evenodd" d="M157.606 140.667c-10.616 4.05-21.692 2.012-31.158-5.276-9.331-7.184-16.55-18.998-20.829-33.164l8.282-2.5c3.93 13.013 10.337 23.046 17.825 28.811 7.353 5.661 15.296 6.909 22.795 4.048 7.703-2.94 15.081-10.28 20.543-21.539 5.44-11.21 8.452-25.26 8.419-39.843-.032-14.582-3.106-28.593-8.592-39.735-5.509-11.187-12.911-18.43-20.615-21.275-7.501-2.77-15.445-1.435-22.787 4.323-7.472 5.86-13.839 15.978-17.712 29.04l-8.294-2.459c4.215-14.212 11.378-26.1 20.667-33.386 9.418-7.387 20.479-9.562 31.122-5.632 10.441 3.855 19.252 13.125 25.38 25.569 6.15 12.49 9.447 27.833 9.482 43.536.035 15.703-3.195 31.082-9.286 43.637-6.069 12.51-14.832 21.872-25.242 25.845z" fill="#5468FF"/><g clip-path="url(#clip0)" fill-rule="evenodd" clip-rule="evenodd" fill="#5468FF"><path d="M6.22 91.861c3.81 5.917 9.344 12.218 21.31 18.272L23.783 97.88c-4.037-3.171-7.243-5.973-10.289-10.702-3.039-4.718-4.648-9.76-4.824-14.813-.175-5.05 1.08-10.126 3.771-14.923 2.698-4.81 6.795-9.258 12.125-13.003l3.687-12.149C15.132 38.777 8.305 47.13 4.895 53.211 1.478 59.304-.21 65.938.024 72.666.258 79.392 2.402 85.934 6.22 91.86zm106.726 5.578c-6.981 7.901-16.914 13.887-28.347 17.33-11.442 3.446-22.754 3.869-33.135 2.716l-5.19-9.658c13.264 2.883 25.677 1.718 35.83-1.34 7.473-2.25 14.021-5.665 19.247-9.899.468-.38.926-.766 1.373-1.158h7.947l2.275 2.009zm0-51.877c-6.981-7.902-16.914-13.888-28.347-17.33-11.442-3.447-22.754-3.87-33.135-2.717l-5.19 9.658c13.264-2.883 25.677-1.718 35.83 1.34 7.473 2.25 14.021 5.665 19.247 9.899.468.38.926.766 1.373 1.159h7.947l2.275-2.01z"/><path d="M105.046 97.439c6.981 7.901 16.914 13.887 28.347 17.33 11.442 3.446 22.754 3.869 33.135 2.716l5.19-9.658c-13.264 2.883-25.677 1.718-35.83-1.34-7.473-2.25-14.021-5.665-19.247-9.899-.468-.38-.926-.766-1.373-1.158h-7.946l-2.276 2.009zm0-51.877c6.981-7.902 16.914-13.888 28.347-17.33 11.442-3.447 22.754-3.87 33.135-2.717l5.19 9.658c-13.264-2.883-25.677-1.718-35.83 1.34-7.473 2.25-14.021 5.665-19.247 9.899-.468.38-.926.766-1.373 1.159h-7.946l-2.276-2.01zm106.727 46.299c-3.811 5.917-9.344 12.218-21.311 18.272l3.748-12.253c4.037-3.171 7.244-5.973 10.289-10.702 3.039-4.718 4.648-9.76 4.824-14.813.176-5.05-1.08-10.126-3.771-14.923-2.697-4.81-6.795-9.258-12.125-13.003l-3.686-12.149c13.12 6.487 19.946 14.84 23.357 20.921 3.417 6.093 5.105 12.727 4.871 19.455-.234 6.726-2.379 13.268-6.196 19.195z"/></g><g clip-path="url(#clip1)" fill="#70F"><path d="M89.68 50.742a2.307 2.307 0 11-4.613 0 2.307 2.307 0 014.613 0zm-5.479 7.784a2.307 2.307 0 11-4.613 0 2.307 2.307 0 014.613 0zm48.445 32.867a2.307 2.307 0 11-4.614 0 2.307 2.307 0 014.614 0z"/><path fill-rule="evenodd" clip-rule="evenodd" d="M129.169 49.376a2.308 2.308 0 013.261.119 32.222 32.222 0 015.963 34.728 2.307 2.307 0 01-4.234-1.832 27.596 27.596 0 00-5.109-29.755 2.307 2.307 0 01.119-3.26zm-49.823 17.28a2.306 2.306 0 012.109 2.489 27.61 27.61 0 006.914 20.657 2.306 2.306 0 11-3.442 3.072 32.222 32.222 0 01-8.07-24.11 2.307 2.307 0 012.489-2.108z"/></g><path d="M127.783 71.463c-.022 10.445-8.496 18.894-18.927 18.872-10.431-.021-18.87-8.506-18.848-18.951.022-10.445 8.496-18.895 18.927-18.873 10.431.022 18.87 8.507 18.848 18.952z" fill="#70F"/><path d="M125.869 63.14c7.065 16.288-6.777 27.677-17.013 27.195-4.902 0-8.363-1.97-8.363-1.97-4.47-2.305-6.488-5.333-6.488-5.333s6.921 1.972 17.446-2.594c10.525-4.567 14.418-17.299 14.418-17.299z" fill="#6C04E2"/><path d="M284.95 98c-.52 0-.988-.182-1.404-.546-.364-.416-.546-.884-.546-1.404v-50.7c0-.572.182-1.04.546-1.404.416-.364.884-.546 1.404-.546h21.84c6.656 0 11.882 1.534 15.678 4.602 3.848 3.068 5.772 7.54 5.772 13.416 0 5.824-1.898 10.218-5.694 13.182-3.796 2.912-9.048 4.368-15.756 4.368h-9.282V96.05c0 .572-.208 1.04-.624 1.404-.364.364-.832.546-1.404.546h-10.53zm21.45-29.796c2.288 0 4.082-.572 5.382-1.716 1.3-1.196 1.95-2.938 1.95-5.226 0-2.132-.624-3.822-1.872-5.07-1.196-1.3-3.016-1.95-5.46-1.95h-9.126v13.962h9.126zm43.351 30.576c-4.576 0-8.268-1.534-11.076-4.602-2.808-3.12-4.212-7.462-4.212-13.026V59.39c0-.572.182-1.04.546-1.404.364-.364.832-.546 1.404-.546h9.75c.572 0 1.04.182 1.404.546.416.364.624.832.624 1.404v21.294c0 5.096 2.262 7.644 6.786 7.644 2.184 0 3.9-.676 5.148-2.028 1.248-1.352 1.872-3.224 1.872-5.616V59.39c0-.572.182-1.04.546-1.404.416-.364.884-.546 1.404-.546h9.75c.572 0 1.04.182 1.404.546.364.364.546.832.546 1.404v36.66c0 .52-.182.988-.546 1.404-.364.364-.832.546-1.404.546h-9.048c-.52 0-.988-.182-1.404-.546-.364-.416-.546-.884-.546-1.404v-2.964c-2.704 3.796-7.02 5.694-12.948 5.694zm37.021-.78c-.52 0-.988-.182-1.404-.546-.364-.416-.546-.884-.546-1.404V44.57c0-.572.182-1.04.546-1.404.416-.364.884-.546 1.404-.546h9.204c.572 0 1.04.182 1.404.546.364.364.546.832.546 1.404v51.48c0 .572-.182 1.04-.546 1.404-.364.364-.832.546-1.404.546h-9.204zm37.06.78c-4.212 0-7.748-.598-10.608-1.794-2.808-1.196-4.888-2.626-6.24-4.29-1.352-1.664-2.028-3.146-2.028-4.446 0-.52.182-.936.546-1.248.416-.364.858-.546 1.326-.546h8.892c.312 0 .598.13.858.39.624.416 1.092.754 1.404 1.014 1.144.832 2.132 1.456 2.964 1.872.884.364 1.95.546 3.198.546 1.508 0 2.73-.286 3.666-.858.988-.624 1.482-1.482 1.482-2.574 0-.884-.26-1.586-.78-2.106-.468-.52-1.404-1.014-2.808-1.482-1.404-.52-3.536-1.066-6.396-1.638-4.316-.884-7.644-2.314-9.984-4.29-2.288-2.028-3.432-4.732-3.432-8.112 0-2.132.676-4.16 2.028-6.084 1.352-1.924 3.354-3.484 6.006-4.68 2.704-1.196 5.902-1.794 9.594-1.794 3.692 0 6.916.572 9.672 1.716 2.756 1.144 4.836 2.548 6.24 4.212 1.456 1.612 2.184 3.094 2.184 4.446 0 .468-.182.884-.546 1.248a1.478 1.478 0 01-1.17.546h-8.112c-.416 0-.806-.13-1.17-.39a11.883 11.883 0 01-1.794-1.17c-.884-.676-1.716-1.196-2.496-1.56-.78-.364-1.742-.546-2.886-.546-1.352 0-2.444.312-3.276.936-.78.624-1.17 1.43-1.17 2.418 0 .78.208 1.43.624 1.95.468.52 1.404 1.04 2.808 1.56 1.456.468 3.588.962 6.396 1.482 5.044.884 8.71 2.444 10.998 4.68 2.34 2.236 3.51 4.862 3.51 7.878 0 3.848-1.716 6.942-5.148 9.282-3.432 2.288-8.216 3.432-14.352 3.432zm38.589 0c-2.756 0-5.278-.52-7.566-1.56-2.236-1.092-4.004-2.548-5.304-4.368-1.248-1.872-1.872-3.926-1.872-6.162 0-3.588 1.456-6.474 4.368-8.658 2.964-2.184 7.02-3.692 12.168-4.524l9.75-1.482v-1.092c0-1.976-.416-3.432-1.248-4.368-.832-.936-2.236-1.404-4.212-1.404-1.196 0-2.184.208-2.964.624-.78.416-1.586.988-2.418 1.716-.728.624-1.274 1.04-1.638 1.248-.156.416-.442.624-.858.624h-8.502c-.52 0-.962-.156-1.326-.468a1.577 1.577 0 01-.39-1.248c.052-1.404.728-2.964 2.028-4.68 1.352-1.716 3.38-3.198 6.084-4.446 2.756-1.248 6.136-1.872 10.14-1.872 6.396 0 11.128 1.43 14.196 4.29 3.068 2.808 4.602 6.604 4.602 11.388V96.05c0 .52-.182.988-.546 1.404-.364.364-.832.546-1.404.546h-9.048c-.52 0-.988-.182-1.404-.546-.364-.416-.546-.884-.546-1.404v-2.73c-1.144 1.612-2.756 2.938-4.836 3.978-2.028.988-4.446 1.482-7.254 1.482zm3.666-8.892c2.392 0 4.316-.78 5.772-2.34 1.508-1.56 2.262-3.848 2.262-6.864v-1.092l-6.63 1.17c-4.68.832-7.02 2.47-7.02 4.914 0 1.3.546 2.34 1.638 3.12 1.092.728 2.418 1.092 3.978 1.092zM498.211 98c-.572 0-1.04-.182-1.404-.546-.364-.364-.546-.832-.546-1.404V59.39c0-.572.182-1.04.546-1.404.364-.364.832-.546 1.404-.546h8.97c.572 0 1.04.208 1.404.624.416.364.624.806.624 1.326v3.12c2.86-3.38 6.708-5.07 11.544-5.07h3.432c.572 0 1.04.182 1.404.546.364.364.546.832.546 1.404v8.034c0 .52-.182.988-.546 1.404-.364.364-.832.546-1.404.546h-7.566c-2.132 0-3.796.598-4.992 1.794-1.144 1.144-1.716 2.782-1.716 4.914V96.05c0 .572-.208 1.04-.624 1.404-.364.364-.832.546-1.404.546h-9.672zm71.796.78c-7.436 0-13.26-1.794-17.472-5.382-4.16-3.64-6.37-8.892-6.63-15.756-.052-1.404-.078-3.692-.078-6.864 0-3.224.026-5.564.078-7.02.26-6.76 2.522-11.96 6.786-15.6 4.264-3.692 10.036-5.538 17.316-5.538 4.576 0 8.684.78 12.324 2.34 3.64 1.508 6.5 3.692 8.58 6.552 2.132 2.808 3.224 6.11 3.276 9.906v.156c0 .416-.182.78-.546 1.092-.312.26-.676.39-1.092.39h-10.53c-.676 0-1.196-.13-1.56-.39-.364-.312-.676-.858-.936-1.638-.728-2.652-1.872-4.498-3.432-5.538-1.56-1.092-3.614-1.638-6.162-1.638-6.136 0-9.308 3.432-9.516 10.296-.052 1.404-.078 3.562-.078 6.474 0 2.912.026 5.122.078 6.63.208 6.864 3.38 10.296 9.516 10.296 2.548 0 4.628-.546 6.24-1.638 1.612-1.144 2.73-2.99 3.354-5.538.208-.78.494-1.3.858-1.56.364-.312.91-.468 1.638-.468h10.53c.468 0 .858.156 1.17.468.364.312.52.702.468 1.17-.052 3.796-1.144 7.124-3.276 9.984-2.08 2.808-4.94 4.992-8.58 6.552-3.64 1.508-7.748 2.262-12.324 2.262zm50.712 0c-6.448 0-11.414-1.534-14.898-4.602-3.484-3.068-5.382-7.384-5.694-12.948-.052-.676-.078-1.846-.078-3.51 0-1.664.026-2.834.078-3.51.312-5.512 2.262-9.802 5.85-12.87 3.588-3.12 8.502-4.68 14.742-4.68 6.292 0 11.232 1.56 14.82 4.68 3.588 3.068 5.538 7.358 5.85 12.87.052.676.078 1.846.078 3.51 0 1.664-.026 2.834-.078 3.51-.312 5.564-2.21 9.88-5.694 12.948-3.484 3.068-8.476 4.602-14.976 4.602zm0-9.516c2.288 0 3.978-.676 5.07-2.028 1.092-1.404 1.716-3.536 1.872-6.396.052-.52.078-1.56.078-3.12s-.026-2.6-.078-3.12c-.156-2.808-.806-4.914-1.95-6.318-1.092-1.404-2.756-2.106-4.992-2.106-4.316 0-6.604 2.808-6.864 8.424l-.078 3.12.078 3.12c.104 2.86.702 4.992 1.794 6.396 1.144 1.352 2.834 2.028 5.07 2.028zM651.164 98c-.572 0-1.04-.182-1.404-.546-.364-.364-.546-.832-.546-1.404V59.39c0-.572.182-1.04.546-1.404.364-.364.832-.546 1.404-.546h8.97c.572 0 1.04.208 1.404.624.416.364.624.806.624 1.326v3.12c2.86-3.38 6.708-5.07 11.544-5.07h3.432c.572 0 1.04.182 1.404.546.364.364.546.832.546 1.404v8.034c0 .52-.182.988-.546 1.404-.364.364-.832.546-1.404.546h-7.566c-2.132 0-3.796.598-4.992 1.794-1.144 1.144-1.716 2.782-1.716 4.914V96.05c0 .572-.208 1.04-.624 1.404-.364.364-.832.546-1.404.546h-9.672zm51.809.78c-6.24 0-11.154-1.69-14.742-5.07-3.588-3.38-5.46-8.294-5.616-14.742v-2.73c.208-6.136 2.106-10.92 5.694-14.352 3.64-3.484 8.502-5.226 14.586-5.226 4.42 0 8.138.91 11.154 2.73 3.068 1.768 5.356 4.212 6.864 7.332 1.56 3.12 2.34 6.708 2.34 10.764v1.872c0 .52-.182.988-.546 1.404-.364.364-.832.546-1.404.546h-24.96v.546c.104 2.444.702 4.42 1.794 5.928s2.678 2.262 4.758 2.262c1.3 0 2.366-.26 3.198-.78a11.926 11.926 0 002.262-2.028c.468-.572.832-.91 1.092-1.014.312-.156.78-.234 1.404-.234h9.672c.468 0 .858.156 1.17.468.364.26.546.624.546 1.092 0 1.352-.78 2.912-2.34 4.68-1.508 1.768-3.718 3.302-6.63 4.602-2.912 1.3-6.344 1.95-10.296 1.95zm6.552-25.194v-.156c0-2.548-.598-4.55-1.794-6.006-1.144-1.508-2.756-2.262-4.836-2.262-2.028 0-3.64.754-4.836 2.262-1.144 1.456-1.716 3.458-1.716 6.006v.156h13.182z" fill="#303030"/><defs><clipPath id="clip0"><path fill="#fff" transform="translate(0 24.794)" d="M0 0h218v93.411H0z"/></clipPath><clipPath id="clip1"><path fill="#fff" transform="translate(76.704 41.48)" d="M0 0h64.593v59.887H0z"/></clipPath></defs></svg>