<svg width="480" height="314" fill="none" xmlns="http://www.w3.org/2000/svg"><path fill-rule="evenodd" clip-rule="evenodd" d="M132.962 308.876c23.374 8.895 47.761 4.419 68.603-11.584 20.547-15.775 36.441-41.716 45.862-72.821l-18.235-5.49c-8.654 28.574-22.761 50.605-39.248 63.263-16.19 12.431-33.68 15.172-50.19 8.889-16.962-6.455-33.207-22.574-45.234-47.294-11.976-24.618-18.608-55.469-18.537-87.488.071-32.021 6.84-62.786 18.92-87.25 12.129-24.566 28.428-40.471 45.391-46.718 16.515-6.081 34.005-3.15 50.172 9.494 16.453 12.869 30.47 35.085 38.999 63.766l18.262-5.4c-9.28-31.207-25.052-57.311-45.504-73.309C181.484.714 157.131-4.063 133.695 4.567c-22.988 8.466-42.39 28.82-55.881 56.145-13.541 27.425-20.802 61.116-20.879 95.597-.076 34.481 7.035 68.248 20.448 95.819 13.363 27.468 32.656 48.025 55.579 56.748z" fill="#5468FF"/><path fill-rule="evenodd" clip-rule="evenodd" d="M347.021 308.876c-23.374 8.895-47.761 4.419-68.604-11.584-20.546-15.775-36.44-41.716-45.861-72.821l18.235-5.49c8.653 28.574 22.761 50.605 39.248 63.263 16.19 12.431 33.68 15.172 50.19 8.889 16.962-6.455 33.207-22.574 45.234-47.294 11.976-24.618 18.608-55.469 18.537-87.488-.071-32.021-6.84-62.786-18.92-87.25-12.129-24.566-28.428-40.471-45.391-46.718-16.515-6.081-34.006-3.15-50.172 9.494-16.453 12.869-30.47 35.085-38.999 63.766l-18.262-5.4c9.28-31.207 25.051-57.311 45.504-73.309C298.499.714 322.852-4.063 346.288 4.567c22.988 8.466 42.389 28.82 55.881 56.145 13.541 27.425 20.802 61.116 20.879 95.597.076 34.481-7.035 68.248-20.448 95.819-13.363 27.468-32.656 48.025-55.579 56.748z" fill="#5468FF"/><g clip-path="url(#clip0)" fill-rule="evenodd" clip-rule="evenodd" fill="#5468FF"><path d="M13.695 201.709c8.39 12.992 20.574 26.827 46.923 40.122l-8.254-26.906c-8.889-6.963-15.949-13.116-22.655-23.499-6.69-10.36-10.234-21.433-10.62-32.526-.387-11.089 2.378-22.236 8.302-32.77 5.94-10.56 14.962-20.329 26.697-28.55l8.117-26.677c-28.889 14.244-43.918 32.587-51.427 45.938C3.253 130.22-.462 144.787.052 159.56c.515 14.768 5.237 29.133 13.643 42.149zm234.993 12.247c-15.37 17.351-37.241 30.494-62.414 38.054-25.195 7.566-50.1 8.496-72.958 5.964l-11.428-21.208c29.206 6.331 56.536 3.773 78.892-2.941 16.453-4.941 30.872-12.44 42.378-21.737a98.055 98.055 0 003.024-2.544h17.497l5.009 4.412zm0-113.912c-15.37-17.35-37.241-30.494-62.414-38.054-25.195-7.566-50.1-8.496-72.958-5.964l-11.428 21.208c29.206-6.33 56.536-3.773 78.892 2.94 16.453 4.942 30.872 12.44 42.378 21.737a98.08 98.08 0 013.024 2.545h17.497l5.009-4.412z"/><path d="M231.295 213.956c15.37 17.351 37.241 30.494 62.414 38.054 25.195 7.566 50.1 8.496 72.958 5.964l11.428-21.208c-29.206 6.331-56.536 3.773-78.892-2.941-16.454-4.941-30.872-12.44-42.378-21.737a98.055 98.055 0 01-3.024-2.544h-17.497l-5.009 4.412zm0-113.912c15.37-17.35 37.241-30.494 62.414-38.054 25.195-7.566 50.1-8.496 72.958-5.964l11.428 21.208c-29.206-6.33-56.536-3.773-78.892 2.94-16.454 4.942-30.872 12.44-42.378 21.737a98.08 98.08 0 00-3.024 2.545h-17.497l-5.009-4.412zm234.993 101.665c-8.391 12.992-20.574 26.827-46.923 40.122l8.254-26.906c8.889-6.963 15.949-13.116 22.655-23.499 6.691-10.36 10.234-21.433 10.621-32.526.386-11.089-2.379-22.236-8.303-32.77-5.94-10.56-14.962-20.329-26.697-28.55l-8.117-26.677c28.888 14.244 43.918 32.587 51.427 45.938 7.524 13.379 11.241 27.946 10.726 42.719-.515 14.768-5.237 29.133-13.643 42.149z"/></g><g clip-path="url(#clip1)" fill="#70F"><path d="M197.46 111.419a5.072 5.072 0 01-5.079 5.065 5.072 5.072 0 01-5.079-5.065c0-2.797 2.274-5.064 5.079-5.064 2.805 0 5.079 2.267 5.079 5.064zm-12.063 17.093c0 2.797-2.274 5.065-5.08 5.065a5.072 5.072 0 01-5.079-5.065c0-2.797 2.274-5.064 5.079-5.064 2.806 0 5.08 2.267 5.08 5.064zm106.667 72.169c0 2.798-2.275 5.065-5.08 5.065a5.072 5.072 0 01-5.079-5.065c0-2.797 2.274-5.064 5.079-5.064 2.805 0 5.08 2.267 5.08 5.064z"/><path fill-rule="evenodd" clip-rule="evenodd" d="M284.409 108.419a5.09 5.09 0 017.178.262 70.634 70.634 0 0117.946 36.175 70.579 70.579 0 01-4.814 40.081 5.085 5.085 0 01-6.679 2.637 5.06 5.06 0 01-2.644-6.66 60.475 60.475 0 004.125-34.344 60.514 60.514 0 00-15.375-30.993 5.055 5.055 0 01.263-7.158zm-109.703 37.945a5.069 5.069 0 014.643 5.465 60.504 60.504 0 0015.224 45.36 5.054 5.054 0 01-.407 7.151 5.09 5.09 0 01-7.172-.406 70.647 70.647 0 01-14.343-24.645 70.576 70.576 0 01-3.427-28.296c.232-2.787 2.686-4.86 5.482-4.629z"/></g><path d="M281.357 156.919c-.048 22.935-18.706 41.488-41.674 41.44-22.968-.048-41.548-18.68-41.5-41.614.048-22.935 18.706-41.488 41.674-41.44 22.968.048 41.548 18.679 41.5 41.614z" fill="#70F"/><path d="M277.143 138.641c15.555 35.768-14.921 60.774-37.461 59.718-10.793 0-18.412-4.325-18.412-4.325-9.842-5.064-14.286-11.711-14.286-11.711s15.238 4.33 38.413-5.698c23.174-10.027 31.746-37.984 31.746-37.984z" fill="#6C04E2"/><defs><clipPath id="clip0"><path fill="#fff" transform="translate(0 54.444)" d="M0 0h480v205.113H0z"/></clipPath><clipPath id="clip1"><path fill="#fff" transform="translate(168.889 91.082)" d="M0 0h142.222v131.5H0z"/></clipPath></defs></svg>