<svg width="756" height="496" fill="none" xmlns="http://www.w3.org/2000/svg"><path fill-rule="evenodd" clip-rule="evenodd" d="M209.415 487.906c36.814 14.051 75.224 6.98 108.051-18.298 32.36-24.919 57.394-65.895 72.231-115.029l-28.719-8.673c-13.63 45.136-35.849 79.937-61.816 99.932-25.5 19.636-53.046 23.965-79.05 14.04-26.715-10.196-52.3-35.657-71.242-74.706-18.864-38.887-29.309-87.62-29.197-138.198.112-50.579 10.773-99.176 29.799-137.822 19.104-38.805 44.774-63.928 71.491-73.795 26.011-9.606 53.559-4.978 79.022 14.997 25.913 20.327 47.989 55.42 61.422 100.725l28.762-8.528c-14.616-49.296-39.455-90.532-71.668-115.801C285.837 1.126 247.482-6.418 210.57 7.214c-36.207 13.371-66.764 45.525-88.013 88.687-21.328 43.321-32.763 96.539-32.884 151.006-.12 54.467 11.079 107.807 32.205 151.357 21.047 43.389 51.434 75.862 87.537 89.641z" fill="#5468FF"/><path fill-rule="evenodd" clip-rule="evenodd" d="M546.558 487.906c-36.814 14.051-75.224 6.98-108.05-18.298-32.361-24.919-57.395-65.895-72.232-115.029l28.719-8.673c13.63 45.136 35.849 79.937 61.816 99.932 25.5 19.636 53.046 23.965 79.05 14.04 26.715-10.196 52.301-35.657 71.243-74.706 18.863-38.887 29.308-87.62 29.196-138.198-.112-50.579-10.773-99.176-29.799-137.822-19.104-38.805-44.774-63.928-71.491-73.795-26.011-9.606-53.559-4.978-79.021 14.997-25.914 20.327-47.99 55.42-61.423 100.725l-28.762-8.528c14.616-49.296 39.455-90.532 71.668-115.801C470.136 1.126 508.491-6.418 545.403 7.214c36.207 13.371 66.764 45.525 88.013 88.687 21.328 43.321 32.763 96.539 32.884 151.006.121 54.467-11.079 107.807-32.205 151.357-21.047 43.389-51.433 75.862-87.537 89.641zM21.57 318.623C34.785 339.146 53.972 361 95.473 382l-13-42.5c-14-11-25.119-20.718-35.68-37.12-10.54-16.364-16.12-33.855-16.729-51.379-.609-17.516 3.747-35.124 13.077-51.763 9.355-16.682 23.565-32.112 42.048-45.099L97.973 112c-45.5 22.5-69.172 51.474-80.998 72.565C5.125 205.697-.73 228.708.082 252.044c.811 23.328 8.248 46.019 21.488 66.579z" fill="#5468FF"/><path fill-rule="evenodd" clip-rule="evenodd" d="M391.683 337.968c-24.207 27.408-58.654 48.169-98.302 60.111-39.681 11.952-78.908 13.421-114.908 9.421l-18-33.5c46 10 89.045 5.96 124.256-4.646 25.914-7.805 48.623-19.65 66.744-34.335a155.28 155.28 0 004.764-4.019h27.557l7.889 6.968zm0-179.937c-24.207-27.407-58.654-48.168-98.302-60.11C253.7 85.968 214.473 84.5 178.473 88.5l-18 33.5c46-10 89.045-5.96 124.256 4.646 25.914 7.805 48.623 19.65 66.744 34.335a155.28 155.28 0 014.764 4.019h27.557l7.889-6.969z" fill="#5468FF"/><path fill-rule="evenodd" clip-rule="evenodd" d="M364.29 337.968c24.207 27.408 58.654 48.169 98.302 60.111C502.273 410.031 541.5 411.5 577.5 407.5l18-33.5c-46 10-89.044 5.96-124.255-4.646-25.914-7.805-48.624-19.65-66.745-34.335a156.49 156.49 0 01-4.764-4.019h-27.557l-7.889 6.968zm0-179.937c24.207-27.407 58.654-48.168 98.302-60.11C502.273 85.968 541.5 84.5 577.5 88.5l18 33.5c-46-10-89.044-5.96-124.255 4.646-25.914 7.805-48.624 19.65-66.745 34.335a156.49 156.49 0 00-4.764 4.019h-27.557l-7.889-6.969zm370.114 160.592C721.188 339.146 702 361 660.5 382l13-42.5c14-11 25.119-20.718 35.681-37.12 10.538-16.364 16.119-33.855 16.728-51.379.609-17.516-3.747-35.124-13.077-51.763-9.355-16.682-23.565-32.112-42.048-45.099L658 112c45.5 22.5 69.172 51.474 80.998 72.565 11.851 21.132 17.704 44.143 16.893 67.479-.811 23.328-8.248 46.019-21.487 66.579z" fill="#5468FF"/><g clip-path="url(#clip0)"><circle cx="303" cy="176" r="8" fill="#70F"/><circle cx="284" cy="203" r="8" fill="#70F"/><circle cx="452" cy="317" r="8" fill="#70F"/><path d="M472.59 288.952a103.777 103.777 0 007.04-58.781 103.698 103.698 0 00-26.24-53.05m-178.889 62.05a103.8 103.8 0 005.011 41.499 103.685 103.685 0 0020.972 36.141" stroke="#70F" stroke-width="16" stroke-linecap="round"/></g><path d="M443.137 247.872c-.076 36.228-29.463 65.535-65.637 65.459-36.175-.076-65.439-29.506-65.363-65.734.076-36.228 29.463-65.535 65.637-65.46 36.175.076 65.439 29.506 65.363 65.735z" fill="#70F"/><path d="M436.5 219c24.5 56.5-23.5 96-59 94.331-17 0-29-6.831-29-6.831C333 298.5 326 288 326 288s24 6.84 60.5-9 50-60 50-60z" fill="#6C04E2"/><defs><clipPath id="clip0"><path fill="#fff" transform="translate(266 143.875)" d="M0 0h224v207.719H0z"/></clipPath></defs></svg>